<svg xmlns="http://www.w3.org/2000/svg" height="961.525" width="951.375"><path d="M0 634.257h951.369V.005H0v634.252z" fill="#254aa5"/><path d="M476.246 72.386l7.824 24.104 25.352-.002-20.51 14.896 7.84 24.106-20.506-14.905-20.503 14.905 7.836-24.106L443.07 96.49h25.341l7.835-24.104m-104.854 28.578l8.283 23.956 25.341-.477-20.224 15.277 8.287 23.954-20.779-14.52-20.22 15.288 7.38-24.247-20.786-14.506 25.342-.472 7.376-24.253M261.55 200.663l25.34.466 8.264-23.963 7.39 24.245 25.349.45-20.78 14.52 7.4 24.25-20.228-15.275-20.77 14.534 8.269-23.957-20.234-15.27m-28.885 105.972l25.346.109 7.926-24.075 7.73 24.141 25.347.096-20.57 14.814 7.74 24.144-20.443-14.991-20.56 14.813 7.933-24.067-20.449-14.984m40.211 144.199l7.93-24.082-20.448-14.968 25.347.096 7.918-24.075 7.74 24.141 25.35.098-20.57 14.812 7.745 24.141-20.45-14.99-20.562 14.827m76.874 76.057l7.779-24.117-20.541-14.852 25.345-.053 7.77-24.12 7.887 24.087 25.349-.066-20.475 14.942 7.895 24.087-20.542-14.849-20.467 14.941m106.629 28.66l8.134-24.022-20.327-15.139 25.345.311 8.126-24.005 7.53 24.196 25.345.317-20.69 14.637 7.546 24.206-20.323-15.155-20.686 14.654m144.752-28.336l-20.566-14.819-20.436 15.014 7.717-24.148-20.583-14.788 25.35-.132 7.71-24.147 7.947 24.076 25.345-.124-20.43 14.99 7.946 24.078m76.734-75.679l-20.457-14.969-20.55 14.833 7.917-24.08-20.461-14.965 25.351.087 7.9-24.08 7.75 24.13 25.351.082L670.11 427.4l7.755 24.135m41.061-143.639l-20.517 14.896 7.842 24.114L685.74 332l-20.5 14.893 7.836-24.1-20.506-14.897h25.35l7.82-24.1 7.837 24.1h25.35m-28.301-105.117l-20.652 14.681 7.591 24.19-20.353-15.114-20.653 14.693 8.08-24.019-20.354-15.111 25.341.261 8.077-24.021 7.578 24.181 25.345.259m-74.394-77.673l-20.6 14.775 7.705 24.148-20.415-15.014-20.59 14.784 7.972-24.064-20.425-15.009 25.345.148 7.974-24.063 7.683 24.15 25.352.145" fill="#fff200"/><path d="M24.12 721.154h16.41v6.032H24.12v23.086h21.786v6.027H17.073v-61.842H45.35v6.028H24.12v20.669m52.645 35.145h-5.843v-5.472c-1.298 2.5-3.52 6.583-10.01 6.583-1.859 0-6.49-.463-8.72-4.261-1.111-2.044-1.482-4.638-1.482-11.868V710.59h6.397v31.056c0 4.735 0 9.927 5.747 9.927 6.491 0 7.515-6.957 7.515-11.595V710.59h6.396v45.71m10.923-45.711h5.84v9.088c.835-2.97 2.968-10.015 9.549-10.015.926 0 1.392.1 1.947.278v7.138c-10.94-1.018-10.94 9.367-10.94 17.71v21.51h-6.396v-45.71m29.099 7.979c-2.223 4.163-2.319 12.605-2.319 15.11 0 13.624 2.69 18.262 7.976 18.262 4.638 0 7.972-3.614 7.972-17.429 0-14.646-2.501-19.563-7.972-19.563-3.06 0-4.542 1.575-5.657 3.62zm20.678 15.29c0 14.192-4.08 23.553-15.113 23.553-11.407 0-14.927-10.571-14.927-23.733 0-6.866 1.298-24.196 15.02-24.196 13.351 0 15.02 16.033 15.02 24.377m15 4.266c0 3.433 0 13.537 7.787 13.537 5.375 0 8.065-3.891 8.065-17.983 0-15.21-3.427-18.452-7.786-18.452-7.695 0-8.066 11.029-8.066 14.555v8.343zm-6.397-27.535h5.93v7.416c.838-2.409 2.786-8.244 9.925-8.244 13.162 0 13.442 19.002 13.442 23.453 0 9.738-2.039 23.918-13.72 23.918-6.122 0-8.068-3.526-9.18-5.47v20.124h-6.397V710.59m58.391 18.351c-.185-5.181-.373-13.994-7.695-13.994-7.234 0-7.883 9.455-8.16 13.994h15.855zm-16.044 5.293c0 4.816 0 17.705 9.089 17.705 5.655 0 7.14-5.934 7.881-9.176l5.658 1.48c-1.86 7.51-4.917 13.167-14.097 13.167-10.196 0-15.292-7.422-15.292-23.369 0-11.398 3.334-24.56 15.202-24.56 14.557 0 14.647 17.52 14.647 24.753h-23.088m30.301-23.645h6.399v45.71h-6.399v-45.71zm6.678-16.132v7.88h-6.955v-7.88h6.955m27.622 27.907c-.932-3.34-2.228-7.417-7.235-7.417-3.707 0-6.305 2.323-6.305 6.305 0 4.638 2.968 6.214 7.139 8.344 9.272 4.823 12.796 6.581 12.796 14.278 0 8.718-5.565 13.536-13.351 13.536-12.425 0-13.908-9.732-14.37-12.795l5.655-1.482c.65 3.148 1.669 8.806 8.623 8.806 4.265 0 6.86-2.786 6.86-7.046 0-5.102-2.32-6.3-9.364-9.825-5.84-2.965-10.289-6.127-10.289-13.167 0-5.008 2.87-12.42 12.514-12.42 10.291 0 12.055 8.153 12.795 11.493l-5.468 1.39m13.054-27.907h6.399v38.567l12.611-22.435h6.859l-10.103 16.877L293.33 756.3h-7.6l-7.975-22.344-5.285 8.251V756.3h-6.399v-61.841m37.722 49.507c0 1.298 0 7.973 6.023 7.973 2.968 0 5.469-1.854 6.678-4.262 1.852-3.527 2.224-7.143 2.224-14.555-6.954-.185-14.925-.377-14.925 10.844zM320.2 756.3c-.927-2.873-.927-5.003-.927-6.677-1.392 3.335-3.337 7.788-10.384 7.788-9.734 0-11.958-8.065-11.958-13.536 0-6.768 3.149-12.427 9.362-14.557 4.36-1.48 7.787-1.388 12.425-1.21 0-7.872.09-13.345-6.862-13.345-5.746 0-6.953 4.08-7.881 8.622l-5.84-1.577c.928-3.982 3.061-12.326 14.278-12.326 3.708 0 7.416.829 10.198 3.8 2.317 2.5 2.688 6.675 2.688 13.998v18.447c0 6.676.276 8.534.649 10.573H320.2m41.786-61.843v7.88h-6.951v-7.88h6.951zm-.277 16.132v47.283c0 11.222-1.575 14.555-10.939 14.555h-3.524v-5.933h3.151c4.45 0 4.914-1.297 4.914-8.899v-47.006h6.398m17.979 7.978c-2.224 4.163-2.32 12.605-2.32 15.11 0 13.624 2.688 18.262 7.975 18.262 4.635 0 7.973-3.614 7.973-17.429 0-14.646-2.502-19.563-7.973-19.563-3.06 0-4.542 1.575-5.655 3.62zm20.673 15.29c0 14.192-4.079 23.553-15.111 23.553-11.402 0-14.926-10.571-14.926-23.733 0-6.866 1.296-24.196 15.019-24.196 13.348 0 15.018 16.033 15.018 24.377m8.603-23.269h5.841v9.088c.838-2.97 2.967-10.015 9.55-10.015.927 0 1.393.1 1.948.278v7.138c-10.94-1.018-10.94 9.367-10.94 17.71v21.51h-6.4v-45.71m42.641 16.598c0-4.265-1.394-11.96-7.883-11.96-7.047 0-7.974 9.546-7.974 17.711 0 2.315 0 10.474 2.134 14.92 1.297 2.6 2.968 4.082 6.027 4.082 2.41 0 4.357-1.112 5.747-3.243 1.853-2.595 1.949-6.119 1.949-9.182v-12.328zm6.395 29.113h-5.559v-5.937c-1.022 2.23-3.156 6.77-10.107 6.77-12.332 0-13.63-15.296-13.63-22.812 0-18.26 7.044-24.559 14.278-24.559 6.026 0 7.788 4.169 8.623 6.02v-21.324h6.395V756.3m17.316-17.429c0 2.13 0 7.134 2.23 10.103.739 1.013 2.501 2.965 5.19 2.965 6.859 0 8.434-8.807 8.434-18.817 0-11.777-1.756-17.896-7.693-17.896-3.524 0-8.161 2.599-8.161 15.759v7.886zm-6.396-44.414h6.396v22.62c.838-2.13 2.879-7.316 9.46-7.316 13.258 0 13.444 17.606 13.444 23.176 0 5.378-.56 14.463-5.01 19.835-2.04 2.507-5.558 4.36-9.361 4.36-5.285 0-8.344-2.595-9.922-6.392l-1.573 5.559h-3.434v-61.842m37.901 16.132h5.841v9.088c.833-2.97 2.967-10.015 9.548-10.015.931 0 1.392.1 1.949.278v7.138c-10.94-1.018-10.94 9.367-10.94 17.71v21.51h-6.398v-45.71m47.461 45.711h-5.846v-5.472c-1.298 2.5-3.524 6.583-10.014 6.583-1.854 0-6.491-.463-8.709-4.261-1.113-2.044-1.487-4.638-1.487-11.868V710.59h6.395v31.056c0 4.735 0 9.927 5.749 9.927 6.491 0 7.51-6.957 7.51-11.595V710.59h6.402v45.71m10.921-61.843h6.4v38.567l12.608-22.435h6.861l-10.109 16.877L592.46 756.3h-7.603l-7.977-22.344-5.279 8.251V756.3h-6.398v-61.841m50.141 27.905c-.933-3.34-2.229-7.417-7.233-7.417-3.71 0-6.303 2.323-6.303 6.305 0 4.638 2.963 6.214 7.137 8.344 9.271 4.823 12.791 6.581 12.791 14.278 0 8.718-5.56 13.536-13.347 13.536-12.424 0-13.91-9.732-14.37-12.795l5.659-1.482c.647 3.148 1.666 8.806 8.618 8.806 4.262 0 6.857-2.786 6.857-7.046 0-5.102-2.315-6.3-9.363-9.825-5.837-2.965-10.294-6.127-10.294-13.167 0-5.008 2.883-12.42 12.523-12.42 10.289 0 12.049 8.153 12.796 11.493l-5.471 1.39m13.525-6.49h-5.755v-5.285h5.755v-3.713c0-5.65 0-13.536 10.386-13.536 1.663 0 3.15.279 4.905.469v5.564c-1.755-.375-2.688-.562-3.797-.562-5.103 0-5.103 4.545-5.103 8.065v3.713h7.145v5.285h-7.145v40.425h-6.391v-40.425m25.481 2.693c-2.223 4.163-2.32 12.605-2.32 15.11 0 13.624 2.692 18.262 7.978 18.262 4.63 0 7.97-3.614 7.97-17.429 0-14.646-2.505-19.563-7.97-19.563-3.064 0-4.546 1.575-5.658 3.62zm20.676 15.29c0 14.192-4.082 23.553-15.111 23.553-11.406 0-14.931-10.571-14.931-23.733 0-6.866 1.302-24.196 15.023-24.196 13.352 0 15.02 16.033 15.02 24.377m8.609-23.269h5.837v6.957c.833-2.042 3.246-8.065 10.108-8.065 3.984 0 6.953 1.853 8.431 4.725 1.58 2.779 1.58 7.88 1.58 13.073v29.02h-6.398v-29.02c0-5.748 0-11.868-5.745-11.868-6.679 0-7.42 9.183-7.42 14.562v26.326h-6.393v-45.71m56.898 16.597c0-4.265-1.384-11.96-7.875-11.96-7.046 0-7.978 9.546-7.978 17.711 0 2.315 0 10.474 2.132 14.92 1.296 2.6 2.97 4.082 6.026 4.082 2.414 0 4.36-1.112 5.755-3.243 1.854-2.595 1.94-6.119 1.94-9.182v-12.328zm6.402 29.113h-5.568v-5.937c-1.02 2.23-3.15 6.77-10.104 6.77-12.333 0-13.629-15.296-13.629-22.812 0-18.26 7.046-24.559 14.279-24.559 6.026 0 7.791 4.169 8.62 6.02v-21.324h6.402V756.3m31.411-27.359c-.19-5.181-.37-13.994-7.7-13.994-7.226 0-7.875 9.455-8.152 13.994h15.852zm-16.043 5.293c0 4.816 0 17.705 9.096 17.705 5.65 0 7.134-5.934 7.874-9.176l5.651 1.48c-1.853 7.51-4.904 13.167-14.088 13.167-10.2 0-15.3-7.422-15.3-23.369 0-11.398 3.34-24.56 15.208-24.56 14.556 0 14.649 17.52 14.649 24.753h-23.09m30.31-23.645h5.837v6.957c.834-2.042 3.248-8.065 10.109-8.065 3.99 0 6.952 1.853 8.435 4.725 1.575 2.779 1.575 7.88 1.575 13.073v29.02h-6.396v-29.02c0-5.748 0-11.868-5.745-11.868-6.682 0-7.422 9.183-7.422 14.562v26.326h-6.393v-45.71m56.529 5.285h-5.757v-5.285h5.757v-3.713c0-5.65 0-13.536 10.375-13.536 1.673 0 3.16.279 4.915.469v5.564c-1.754-.375-2.685-.562-3.8-.562-5.1 0-5.1 4.545-5.1 8.065v3.713h7.146v5.285h-7.145v40.425h-6.392v-40.425m37.438-12.883c-2.594 0-4.541-2.042-4.541-4.55 0-2.501 2.045-4.546 4.541-4.546 2.691 0 4.545 2.33 4.545 4.546 0 2.229-1.76 4.55-4.545 4.55zm-11.956 15.577c-2.225 4.162-2.321 12.605-2.321 15.11 0 13.623 2.692 18.26 7.977 18.26 4.631 0 7.973-3.613 7.973-17.428 0-14.646-2.508-19.563-7.973-19.563-3.064 0-4.551 1.575-5.656 3.62zm-.649-15.577c-2.594 0-4.545-2.042-4.545-4.55a4.553 4.553 0 0 1 4.545-4.546c2.686 0 4.54 2.33 4.54 4.546 0 2.229-1.755 4.55-4.54 4.55zm21.324 30.867c0 14.19-4.081 23.552-15.111 23.552-11.405 0-14.932-10.571-14.932-23.732 0-6.867 1.297-24.197 15.024-24.197 13.346 0 15.019 16.033 15.019 24.377m8.61-23.269h5.836v9.088c.833-2.97 2.964-10.015 9.554-10.015.92 0 1.387.1 1.94.278v7.138c-10.938-1.018-10.938 9.367-10.938 17.71v21.51h-6.392v-45.71M42.187 850.149h6.397v-61.84h-6.397v61.84zm21.874-12.327c0 1.298 0 7.967 6.024 7.967 2.968 0 5.47-1.851 6.68-4.262 1.852-3.525 2.222-7.143 2.222-14.555-6.953-.185-14.926-.376-14.926 10.85zm16.408 12.326c-.925-2.872-.925-5.002-.925-6.67-1.393 3.33-3.338 7.782-10.384 7.782-9.737 0-11.96-8.064-11.96-13.536 0-6.768 3.15-12.424 9.363-14.555 4.36-1.476 7.787-1.39 12.424-1.205 0-7.879.09-13.35-6.86-13.35-5.747 0-6.954 4.081-7.884 8.62l-5.838-1.574c.926-3.984 3.06-12.328 14.278-12.328 3.708 0 7.416.828 10.198 3.805 2.319 2.494 2.687 6.67 2.687 13.998v18.441c0 6.676.277 8.535.648 10.572h-5.747m15.371-45.709h5.842v6.96c.836-2.045 3.245-8.066 10.106-8.066 3.988 0 6.957 1.853 8.438 4.723 1.575 2.785 1.575 7.882 1.575 13.079v29.014h-6.398v-29.014c0-5.752 0-11.867-5.746-11.867-6.675 0-7.417 9.176-7.417 14.555v26.326h-6.4v-45.71m56.912 16.6c0-4.262-1.392-11.963-7.883-11.963-7.044 0-7.975 9.553-7.975 17.711 0 2.317 0 10.48 2.136 14.925 1.298 2.6 2.966 4.077 6.024 4.077 2.412 0 4.359-1.112 5.747-3.243 1.858-2.592 1.952-6.119 1.952-9.181v-12.326zm6.394 29.11h-5.561v-5.934c-1.021 2.227-3.152 6.767-10.106 6.767-12.333 0-13.629-15.29-13.629-22.812 0-18.26 7.044-24.559 14.278-24.559 6.027 0 7.787 4.169 8.625 6.02V788.31h6.393v61.84m27.893-33.93c-.931-3.34-2.228-7.421-7.234-7.421-3.709 0-6.305 2.322-6.305 6.304 0 4.637 2.967 6.213 7.14 8.343 9.271 4.823 12.795 6.588 12.795 14.278 0 8.719-5.565 13.536-13.351 13.536-12.425 0-13.908-9.732-14.37-12.794l5.655-1.477c.648 3.15 1.668 8.8 8.622 8.8 4.263 0 6.86-2.78 6.86-7.045 0-5.096-2.319-6.3-9.365-9.826-5.839-2.964-10.289-6.12-10.289-13.16 0-5.013 2.873-12.425 12.515-12.425 10.294 0 12.054 8.153 12.795 11.492l-5.468 1.395m19.45 16.501c0 2.131 0 7.14 2.226 10.105.74 1.018 2.504 2.963 5.191 2.963 6.86 0 8.436-8.8 8.436-18.817 0-11.77-1.758-17.896-7.692-17.896-3.524 0-8.161 2.6-8.161 15.765v7.88zm-6.398-44.412h6.398v22.621c.835-2.131 2.875-7.319 9.457-7.319 13.258 0 13.444 17.613 13.444 23.176 0 5.38-.559 14.463-5.007 19.841-2.04 2.502-5.562 4.354-9.363 4.354-5.286 0-8.344-2.588-9.924-6.39l-1.575 5.556h-3.43v-61.84m38.647 16.131l7.418 31.53 7.876-31.53h5.752l-12.98 50.07c-1.856 7.045-4.36 12.147-10.294 12.147-1.665 0-2.686-.278-3.706-.557v-5.755c1.482.464 2.224.655 3.245.655 2.502 0 3.337-.655 5.285-8.72l1.666-6.854-10.844-40.986h6.581m31.6 14.746c0 3.804.834 10.102 6.49 10.102 5.377 0 6.213-5.286 6.213-10.38 0-5.935-1.578-10.108-6.214-10.108-5.655 0-6.489 6.303-6.489 10.386zm-2.226 35.508c0 5.194 3.894 7.51 9.458 7.51 1.298 0 9.458 0 9.458-7.33 0-3.514-2.227-4.724-4.636-5.28-.834-.278-2.875-.463-11.035-1.112-1.204.834-3.245 2.323-3.245 6.213zm24.475-51.453c-3.985-.185-5.652.371-5.93 5.374 2.224 3.148 3.15 7.046 3.15 10.937 0 9.18-5.284 15.209-13.349 15.209-2.227 0-3.34-.376-4.357-.833-3.245 1.204-3.245 3.895-3.245 4.352 0 4.267 3.894 4.547 12.702 5.199 3.15.278 11.96.922 11.96 10.938 0 10.844-9.55 13.259-16.597 13.259-10.476 0-15.296-5.286-15.296-11.499 0-6.12 4.263-8.534 5.933-9.455-4.36-2.598-4.636-6.49-4.636-7.7 0-5.192 3.983-7.133 5.375-7.88-1.392-1.481-4.541-4.723-4.541-12.233 0-8.998 4.911-15.575 12.887-15.575 3.432 0 5.194 1.106 6.303 1.853.187-2.689.556-8.536 9.641-7.701v5.755m26.039 17.799c0-4.262-1.393-11.963-7.883-11.963-7.046 0-7.973 9.553-7.973 17.711 0 2.317 0 10.48 2.134 14.925 1.297 2.6 2.967 4.077 6.027 4.077 2.409 0 4.357-1.112 5.746-3.243 1.853-2.592 1.949-6.119 1.949-9.181v-12.326zm6.395 29.11h-5.561v-5.934c-1.021 2.227-3.153 6.767-10.103 6.767-12.332 0-13.629-15.29-13.629-22.812 0-18.26 7.042-24.559 14.277-24.559 6.025 0 7.787 4.169 8.621 6.02V788.31h6.395v61.84m27.891-33.93c-.931-3.34-2.227-7.421-7.234-7.421-3.706 0-6.306 2.322-6.306 6.304 0 4.637 2.968 6.213 7.139 8.343 9.273 4.823 12.796 6.588 12.796 14.278 0 8.719-5.565 13.536-13.352 13.536-12.424 0-13.906-9.732-14.368-12.794l5.654-1.477c.649 3.15 1.669 8.8 8.621 8.8 4.265 0 6.861-2.78 6.861-7.045 0-5.096-2.318-6.3-9.365-9.826-5.838-2.964-10.288-6.12-10.288-13.16 0-5.013 2.871-12.425 12.515-12.425 10.295 0 12.053 8.153 12.795 11.492l-5.468 1.395m38.46 33.929h-5.844v-5.472c-1.296 2.507-3.52 6.583-10.008 6.583-1.858 0-6.492-.456-8.719-4.261-1.114-2.043-1.484-4.638-1.484-11.868V804.44h6.4v31.06c0 4.731 0 9.925 5.748 9.925 6.488 0 7.511-6.959 7.511-11.596v-29.39h6.396v45.71m6.285-45.71h5.19v-11.491l6.4-.743v12.234h7.788v5.291h-7.788v24.845c0 7.509.649 9.548 5.561 9.548 1.58 0 2.042-.087 3.432-.28v5.564c-.838.371-2.319.928-5.469.928-9.55 0-9.924-6.767-9.924-15.76V809.73h-5.19v-5.291m21.22 0h6.679l7.878 37.742 7.603-37.742h6.303l-10.754 45.71h-6.954l-10.755-45.71m54.41 18.359c-.185-5.188-.374-14-7.695-14-7.232 0-7.882 9.456-8.16 14h15.855zm-16.041 5.286c0 4.822 0 17.705 9.088 17.705 5.653 0 7.14-5.928 7.88-9.177l5.657 1.488c-1.856 7.509-4.915 13.16-14.095 13.16-10.196 0-15.295-7.416-15.295-23.366 0-11.395 3.335-24.561 15.205-24.561 14.555 0 14.649 17.52 14.649 24.75h-23.089m50.141-8.812c-.647-4.631-1.764-10.472-7.509-10.472-5.468 0-7.605 4.817-7.605 18.544 0 11.314 1.023 18.446 7.605 18.446 4.264 0 6.583-3.05 7.51-10.473l6.027.742c-1.021 6.488-2.875 15.202-13.444 15.202-12.329 0-14.741-11.399-14.741-22.897 0-12.425 2.412-25.03 14.741-25.03 8.527 0 12.422 6.115 13.444 14.833l-6.028 1.105m13.339-30.962h6.395v38.571l12.607-22.441h6.863l-10.109 16.877 11.5 28.832h-7.605l-7.977-22.342-5.279 8.251v14.091h-6.395v-61.84m33.171 61.841h6.39v-61.84h-6.39v61.84zm17.333-45.71h6.392v45.71h-6.392v-45.71zm6.671-16.13v7.879h-6.954v-7.88h6.954m10.654 16.131h5.835v6.96c.84-2.045 3.25-8.066 10.111-8.066 3.988 0 6.953 1.853 8.434 4.723 1.576 2.785 1.576 7.882 1.576 13.079v29.014h-6.399v-29.014c0-5.752 0-11.867-5.748-11.867-6.675 0-7.415 9.176-7.415 14.555v26.326h-6.394v-45.71m41.792 14.746c0 3.804.834 10.102 6.489 10.102 5.379 0 6.214-5.286 6.214-10.38 0-5.935-1.576-10.108-6.214-10.108-5.655 0-6.489 6.303-6.489 10.386zm-2.22 35.508c0 5.194 3.893 7.51 9.457 7.51 1.297 0 9.46 0 9.46-7.33 0-3.514-2.23-4.724-4.638-5.28-.834-.278-2.876-.463-11.035-1.112-1.204.834-3.244 2.323-3.244 6.213zm24.477-51.453c-3.984-.185-5.66.371-5.937 5.374 2.23 3.148 3.15 7.046 3.15 10.937 0 9.18-5.28 15.209-13.346 15.209-2.228 0-3.339-.376-4.359-.833-3.242 1.204-3.242 3.895-3.242 4.352 0 4.267 3.896 4.547 12.702 5.199 3.15.278 11.952.922 11.952 10.938 0 10.844-9.543 13.259-16.59 13.259-10.478 0-15.295-5.286-15.295-11.499 0-6.12 4.26-8.534 5.933-9.455-4.358-2.598-4.637-6.49-4.637-7.7 0-5.192 3.985-7.133 5.374-7.88-1.39-1.481-4.54-4.723-4.54-12.233 0-8.998 4.916-15.575 12.888-15.575 3.428 0 5.193 1.106 6.305 1.853.185-2.689.556-8.536 9.641-7.701v5.755m13.513 36.899v10.01h-8.064v-10.01h8.064zm0-35.7v10.016h-8.064v-10.016h8.064m38.092 10.571h16.41v6.029h-16.41v23.084h21.783v6.025h-28.834v-61.84h28.277v6.028h-21.225v20.674m52.647 35.139h-5.848v-5.472c-1.296 2.507-3.52 6.583-10.01 6.583-1.852 0-6.49-.456-8.713-4.261-1.113-2.043-1.483-4.638-1.483-11.868V804.44h6.392v31.06c0 4.731 0 9.925 5.748 9.925 6.492 0 7.51-6.959 7.51-11.596v-29.39h6.404v45.71m10.915-45.71h5.843v9.09c.832-2.965 2.963-10.01 9.552-10.01.92 0 1.39.092 1.94.277v7.134c-10.938-1.02-10.938 9.365-10.938 17.709v21.51h-6.397v-45.71m29.105 7.979c-2.223 4.168-2.32 12.605-2.32 15.11 0 13.623 2.686 18.26 7.979 18.26 4.631 0 7.971-3.607 7.971-17.425 0-14.65-2.506-19.564-7.971-19.564-3.064 0-4.552 1.574-5.659 3.619zm20.677 15.296c0 14.184-4.082 23.546-15.117 23.546-11.406 0-14.926-10.565-14.926-23.731 0-6.862 1.296-24.197 15.025-24.197 13.345 0 15.019 16.038 15.019 24.382m15.001 4.261c0 3.439 0 13.536 7.787 13.536 5.379 0 8.064-3.891 8.064-17.982 0-15.21-3.427-18.453-7.785-18.453-7.696 0-8.066 11.03-8.066 14.555v8.344zm-6.399-27.536h5.935v7.422c.834-2.414 2.779-8.25 9.919-8.25 13.166 0 13.444 19.001 13.444 23.454 0 9.737-2.04 23.917-13.723 23.917-6.114 0-8.065-3.52-9.176-5.47v20.124h-6.399V804.44m42.441 33.382c0 1.298 0 7.967 6.028 7.967 2.971 0 5.465-1.851 6.675-4.262 1.854-3.525 2.23-7.143 2.23-14.555-6.961-.185-14.933-.376-14.933 10.85zm16.408 12.326c-.926-2.872-.926-5.002-.926-6.67-1.39 3.33-3.335 7.782-10.38 7.782-9.74 0-11.963-8.064-11.963-13.536 0-6.768 3.156-12.424 9.368-14.555 4.348-1.476 7.788-1.39 12.426-1.205 0-7.879.086-13.35-6.868-13.35-5.748 0-6.953 4.081-7.878 8.62l-5.844-1.574c.927-3.984 3.057-12.328 14.277-12.328 3.707 0 7.419.828 10.203 3.805 2.31 2.494 2.686 6.67 2.686 13.998v18.441c0 6.676.278 8.535.649 10.572h-5.75M19.343 898.29h6.4v45.715h-6.4V898.29zm6.678-16.13v7.884h-6.95v-7.884h6.95m10.651 16.13h5.845v6.959c.833-2.043 3.242-8.065 10.103-8.065 3.989 0 6.956 1.854 8.439 4.723 1.578 2.786 1.578 7.886 1.578 13.079v29.019h-6.401v-29.02c0-5.746 0-11.868-5.747-11.868-6.673 0-7.417 9.176-7.417 14.555v26.333h-6.4V898.29m30.858 0h6.672l7.884 37.742 7.604-37.742h6.302l-10.751 45.715h-6.957L67.53 898.29m54.407 18.358c-.182-5.187-.37-14-7.691-14-7.235 0-7.884 9.462-8.161 14h15.852zm-16.038 5.292c0 4.816 0 17.705 9.088 17.705 5.653 0 7.139-5.934 7.882-9.182l5.654 1.49c-1.855 7.507-4.915 13.163-14.095 13.163-10.196 0-15.294-7.423-15.294-23.366 0-11.401 3.336-24.566 15.204-24.566 14.556 0 14.646 17.526 14.646 24.756h-23.085m47.268-11.868c-.93-3.341-2.228-7.424-7.233-7.424-3.708 0-6.305 2.323-6.305 6.312 0 4.632 2.967 6.213 7.14 8.342 9.271 4.818 12.793 6.583 12.793 14.278 0 8.715-5.563 13.536-13.35 13.536-12.425 0-13.907-9.736-14.367-12.8l5.654-1.478c.648 3.152 1.667 8.807 8.621 8.807 4.264 0 6.86-2.784 6.86-7.045 0-5.101-2.319-6.307-9.365-9.825-5.839-2.971-10.288-6.128-10.288-13.166 0-5.008 2.872-12.425 12.514-12.425 10.294 0 12.055 8.158 12.796 11.493l-5.47 1.395m8.423-11.782h5.19v-11.492l6.399-.742v12.234h7.787v5.29h-7.787v24.851c0 7.504.649 9.541 5.565 9.541 1.572 0 2.035-.086 3.426-.278v5.57c-.834.365-2.319.921-5.467.921-9.548 0-9.923-6.767-9.923-15.754V903.58h-5.19v-5.29m47.179 18.358c-.184-5.187-.373-14-7.694-14-7.235 0-7.884 9.462-8.16 14h15.854zm-16.04 5.292c0 4.816 0 17.705 9.087 17.705 5.653 0 7.139-5.934 7.883-9.182l5.654 1.49c-1.856 7.507-4.917 13.163-14.096 13.163-10.196 0-15.293-7.423-15.293-23.366 0-11.401 3.334-24.566 15.204-24.566 14.555 0 14.647 17.526 14.647 24.756h-23.086m30.3-23.65h5.841v9.094c.836-2.969 2.967-10.015 9.55-10.015.928 0 1.39.092 1.948.277v7.134c-10.943-1.019-10.943 9.373-10.943 17.715v21.51h-6.396V898.29m26.597 33.384c0 1.296 0 7.971 6.026 7.971 2.967 0 5.47-1.852 6.678-4.265 1.853-3.522 2.223-7.14 2.223-14.558-6.952-.178-14.927-.37-14.927 10.852zm16.412 12.331c-.93-2.873-.93-5.009-.93-6.675-1.388 3.335-3.335 7.786-10.383 7.786-9.736 0-11.96-8.064-11.96-13.536 0-6.767 3.154-12.425 9.364-14.557 4.359-1.48 7.786-1.393 12.424-1.21 0-7.872.092-13.343-6.862-13.343-5.745 0-6.95 4.075-7.882 8.62l-5.836-1.575c.926-3.989 3.057-12.331 14.278-12.331 3.704 0 7.417.828 10.195 3.803 2.319 2.495 2.69 6.675 2.69 13.999v18.448c0 6.67.277 8.533.649 10.571h-5.747m15.37-45.715h5.842v9.094c.834-2.969 2.967-10.015 9.547-10.015.927 0 1.392.092 1.948.277v7.134c-10.94-1.019-10.94 9.373-10.94 17.715v21.51h-6.397V898.29m41.792 0h6.4v45.715h-6.4V898.29zm6.679-16.13v7.884h-6.958v-7.884h6.958m30.391 61.845h6.397V882.16h-6.397v61.845zm21.871-12.331c0 1.296 0 7.971 6.025 7.971 2.968 0 5.471-1.852 6.678-4.265 1.852-3.522 2.224-7.14 2.224-14.558-6.954-.178-14.927-.37-14.927 10.852zm16.409 12.331c-.926-2.873-.926-5.009-.926-6.675-1.394 3.335-3.339 7.786-10.385 7.786-9.735 0-11.958-8.064-11.958-13.536 0-6.767 3.149-12.425 9.362-14.557 4.357-1.48 7.787-1.393 12.425-1.21 0-7.872.09-13.343-6.86-13.343-5.748 0-6.958 4.075-7.884 8.62l-5.839-1.575c.926-3.989 3.06-12.331 14.277-12.331 3.71 0 7.417.828 10.2 3.803 2.316 2.495 2.684 6.675 2.684 13.999v18.448c0 6.67.28 8.533.65 10.571h-5.746m15.373-45.715h5.842v6.959c.835-2.043 3.245-8.065 10.105-8.065 3.99 0 6.957 1.854 8.439 4.723 1.575 2.786 1.575 7.886 1.575 13.079v29.019h-6.398v-29.02c0-5.746 0-11.868-5.746-11.868-6.674 0-7.416 9.176-7.416 14.555v26.333h-6.401V898.29m56.912 16.599c0-4.262-1.393-11.963-7.884-11.963-7.044 0-7.975 9.553-7.975 17.718 0 2.31 0 10.473 2.136 14.921 1.298 2.599 2.967 4.08 6.024 4.08 2.411 0 4.36-1.117 5.75-3.247 1.855-2.594 1.949-6.114 1.949-9.177V914.89zm6.394 29.116h-5.56v-5.934c-1.023 2.224-3.154 6.767-10.108 6.767-12.332 0-13.629-15.295-13.629-22.81 0-18.267 7.044-24.567 14.278-24.567 6.029 0 7.787 4.169 8.625 6.021V882.16h6.394v61.845m27.89-33.933c-.928-3.341-2.228-7.424-7.234-7.424-3.708 0-6.305 2.323-6.305 6.312 0 4.632 2.967 6.213 7.139 8.342 9.271 4.818 12.795 6.583 12.795 14.278 0 8.715-5.564 13.536-13.35 13.536-12.425 0-13.908-9.736-14.37-12.8l5.655-1.478c.648 3.152 1.668 8.807 8.622 8.807 4.264 0 6.86-2.784 6.86-7.045 0-5.101-2.319-6.307-9.364-9.825-5.84-2.971-10.288-6.128-10.288-13.166 0-5.008 2.871-12.425 12.514-12.425 10.29 0 12.055 8.158 12.796 11.493l-5.47 1.395m19.452 16.502c0 2.135 0 7.137 2.23 10.102.739 1.017 2.498 2.97 5.184 2.97 6.865 0 8.439-8.808 8.439-18.824 0-11.77-1.758-17.896-7.691-17.896-3.524 0-8.162 2.6-8.162 15.766v7.882zm-6.395-44.414h6.395v22.62c.838-2.132 2.873-7.319 9.458-7.319 13.261 0 13.44 17.613 13.44 23.183 0 5.372-.555 14.456-5.002 19.835-2.043 2.507-5.566 4.36-9.368 4.36-5.283 0-8.342-2.594-9.918-6.398l-1.574 5.564h-3.43V882.16m38.644 16.13l7.411 31.531 7.885-31.53h5.75l-12.98 50.069c-1.854 7.051-4.36 12.146-10.294 12.146-1.67 0-2.687-.277-3.707-.555V954.2c1.483.46 2.23.65 3.248.65 2.502 0 3.341-.65 5.282-8.714l1.667-6.861-10.85-40.985h6.588m31.597 14.745c0 3.805.833 10.105 6.49 10.105 5.378 0 6.213-5.282 6.213-10.381 0-5.935-1.576-10.11-6.213-10.11-5.657 0-6.49 6.311-6.49 10.386zm-2.22 35.509c0 5.193 3.887 7.51 9.456 7.51 1.299 0 9.455 0 9.455-7.325 0-3.52-2.223-4.724-4.633-5.285-.838-.279-2.881-.458-11.033-1.113-1.212.834-3.244 2.323-3.244 6.213zm24.476-51.453c-3.99-.185-5.658.37-5.935 5.379 2.23 3.149 3.15 7.045 3.15 10.937 0 9.177-5.281 15.204-13.346 15.204-2.23 0-3.342-.371-4.36-.834-3.25 1.21-3.25 3.897-3.25 4.36 0 4.26 3.903 4.54 12.705 5.193 3.15.277 11.956.921 11.956 10.936 0 10.851-9.543 13.259-16.594 13.259-10.473 0-15.29-5.28-15.29-11.494 0-6.125 4.261-8.532 5.928-9.459-4.354-2.6-4.632-6.49-4.632-7.695 0-5.192 3.984-7.138 5.373-7.886-1.389-1.475-4.539-4.723-4.539-12.232 0-8.998 4.915-15.575 12.882-15.575 3.428 0 5.193 1.106 6.312 1.854.18-2.688.555-8.536 9.64-7.697v5.75m26.026 17.798c0-4.262-1.386-11.963-7.875-11.963-7.046 0-7.978 9.553-7.978 17.718 0 2.31 0 10.473 2.13 14.921 1.297 2.599 2.97 4.08 6.033 4.08 2.409 0 4.36-1.117 5.749-3.247 1.854-2.594 1.941-6.114 1.941-9.177V914.89zm6.402 29.116h-5.563v-5.934c-1.019 2.224-3.155 6.767-10.103 6.767-12.338 0-13.635-15.295-13.635-22.81 0-18.267 7.047-24.567 14.277-24.567 6.027 0 7.795 4.169 8.622 6.021V882.16h6.402v61.845m27.89-33.933c-.93-3.341-2.227-7.424-7.23-7.424-3.71 0-6.306 2.323-6.306 6.312 0 4.632 2.965 6.213 7.139 8.342 9.27 4.818 12.796 6.583 12.796 14.278 0 8.715-5.565 13.536-13.352 13.536-12.424 0-13.905-9.736-14.37-12.8l5.657-1.478c.643 3.152 1.668 8.807 8.62 8.807 4.261 0 6.861-2.784 6.861-7.045 0-5.101-2.32-6.307-9.367-9.825-5.836-2.971-10.294-6.128-10.294-13.166 0-5.008 2.883-12.425 12.523-12.425 10.29 0 12.049 8.158 12.795 11.493l-5.472 1.395m20.103-3.804c-2.228 4.168-2.32 12.61-2.32 15.11 0 13.63 2.685 18.267 7.978 18.267 4.627 0 7.967-3.613 7.967-17.426 0-14.655-2.501-19.57-7.968-19.57-3.06 0-4.55 1.576-5.657 3.619zm20.672 15.296c0 14.191-4.077 23.552-15.11 23.552-11.408 0-14.93-10.571-14.93-23.737 0-6.862 1.303-24.195 15.025-24.195 13.347 0 15.015 16.037 15.015 24.38m8.608-23.274h5.843v7.329c.835-2.413 2.687-8.435 9.92-8.435 7.508 0 8.532 6.676 8.898 8.99.653-2.5 2.408-8.99 9.916-8.99 3.34 0 6.403 1.573 8.258 4.354 2.037 3.063 2.13 7.7 2.13 12.338v30.129h-6.393v-29.852c0-8.163-1.852-11.036-5.847-11.036-7.04 0-7.04 10.568-7.04 15.94v24.948h-6.405v-28.654c0-6.855-.276-12.234-5.465-12.234-6.396 0-7.416 7.51-7.416 11.772v29.116h-6.399V898.29m55.231 0h5.838v9.094c.839-2.969 2.969-10.015 9.552-10.015.927 0 1.395.092 1.945.277v7.134c-10.936-1.019-10.936 9.373-10.936 17.715v21.51h-6.399V898.29m38.283-13.161a3.527 3.527 0 0 0-3.52-3.526 3.526 3.526 0 0 0-3.527 3.526c0 2.13 1.663 3.619 3.527 3.619 1.853 0 3.52-1.488 3.52-3.62zm-11.318 0c0-4.265 3.524-7.694 7.798-7.694 4.262 0 7.787 3.429 7.787 7.694 0 4.73-3.902 7.787-7.787 7.787-3.898 0-7.798-3.057-7.798-7.787zm-.365 46.545c0 1.296 0 7.971 6.026 7.971 2.97 0 5.465-1.852 6.675-4.265 1.854-3.521 2.23-7.14 2.23-14.558-6.96-.178-14.93-.37-14.93 10.852zm16.408 12.331c-.927-2.873-.927-5.009-.927-6.675-1.388 3.335-3.335 7.786-10.38 7.786-9.738 0-11.962-8.064-11.962-13.536 0-6.767 3.155-12.425 9.367-14.556 4.35-1.481 7.788-1.394 12.425-1.21 0-7.873.088-13.344-6.867-13.344-5.749 0-6.952 4.075-7.878 8.62l-5.843-1.575c.927-3.989 3.062-12.331 14.277-12.331 3.711 0 7.416.828 10.201 3.803 2.322 2.496 2.687 6.675 2.687 13.999v18.448c0 6.67.278 8.533.655 10.571h-5.755m35.95-29.116c0-4.262-1.385-11.963-7.874-11.963-7.048 0-7.978 9.553-7.978 17.718 0 2.31 0 10.473 2.13 14.921 1.297 2.599 2.97 4.08 6.028 4.08 2.414 0 4.359-1.117 5.754-3.247 1.854-2.594 1.94-6.114 1.94-9.177V914.89zm6.404 29.116h-5.57v-5.934c-1.02 2.224-3.15 6.767-10.103 6.767-12.332 0-13.629-15.295-13.629-22.81 0-18.267 7.046-24.567 14.276-24.567 6.028 0 7.793 4.169 8.622 6.021V882.16h6.404v61.845m31.411-27.357c-.192-5.187-.372-14-7.702-14-7.225 0-7.873 9.462-8.152 14h15.854zm-16.045 5.292c0 4.816 0 17.705 9.09 17.705 5.656 0 7.139-5.934 7.88-9.182l5.651 1.49c-1.853 7.507-4.904 13.163-14.086 13.163-10.202 0-15.303-7.423-15.303-23.366 0-11.401 3.341-24.566 15.21-24.566 14.555 0 14.648 17.526 14.648 24.756h-23.09m30.31-23.65h5.837v6.959c.834-2.043 3.248-8.065 10.109-8.065 3.982 0 6.952 1.854 8.43 4.723 1.575 2.786 1.575 7.886 1.575 13.079v29.019h-6.393v-29.02c0-5.746 0-11.868-5.743-11.868-6.682 0-7.423 9.176-7.423 14.555v26.333h-6.392V898.29" fill="#231f20"/></svg>